<svg xmlns="http://www.w3.org/2000/svg" version="1.1" xmlns:xlink="http://www.w3.org/1999/xlink" xmlns:svgjs="http://svgjs.dev/svgjs" width="1920" height="1000" preserveAspectRatio="none" viewBox="0 0 1920 1000"><g mask="url(&quot;#SvgjsMask1014&quot;)" fill="none"><path d="M1672.1423969101786-61.572818457865736L1641.852709074419 185.11689247176935 1888.542420004054 215.40658030752908 1918.8321078398137-31.283130622106025z" fill="rgba(48, 88, 129, 0.4)" class="triangle-float1"></path><path d="M878.367,885.82C942.61,883.485,980.236,821.143,1011.873,765.182C1042.8,710.476,1074.454,647.436,1044.306,592.297C1013.352,535.683,942.847,518.63,878.367,521.005C818.434,523.212,762.997,552.247,732.33,603.788C700.938,656.547,698.689,721.025,726.918,775.542C757.694,834.979,811.479,888.252,878.367,885.82" fill="rgba(48, 88, 129, 0.4)" class="triangle-float2"></path><path d="M156.64071957536464 581.0266837246651L90.57645554683182 744.0938697204344 243.23054938590064 725.3503038383734z" fill="rgba(48, 88, 129, 0.4)" class="triangle-float3"></path><path d="M1781.7862235401512 705.1253436826361L1769.0077466660382 461.2974797867096 1525.1798827701116 474.0759566608227 1537.9583596442249 717.9038205567492z" fill="rgba(48, 88, 129, 0.4)" class="triangle-float2"></path><path d="M564.7712619379395-101.46858744632146L303.11349741918957-110.60587792680667 293.97620693870437 151.05188659194323 555.6339714574542 160.18917707242844z" fill="rgba(48, 88, 129, 0.4)" class="triangle-float2"></path><path d="M1106.88,576.144C1155.456,580.081,1213.817,580.879,1238.018,538.578C1262.146,496.405,1228.819,448.555,1203.654,406.993C1179.82,367.629,1152.776,325.325,1106.88,321.994C1056.138,318.311,1005.004,345.41,982.274,390.925C961.275,432.974,981.796,480.939,1008.031,519.936C1030.707,553.643,1066.388,572.862,1106.88,576.144" fill="rgba(48, 88, 129, 0.4)" class="triangle-float1"></path><path d="M1549.7984317956443 326.072268247184L1500.897772508379 422.04521589049887 1669.3075236169839 447.4097309997394z" fill="rgba(48, 88, 129, 0.4)" class="triangle-float2"></path><path d="M579.9822664056283 111.43643242454657L721.4356045446933 206.84791373513744 816.8470858552841 65.3945755960724 675.3937477162191-30.016905714518472z" fill="rgba(48, 88, 129, 0.4)" class="triangle-float2"></path><path d="M717.7969929458051 473.6676567800215L672.7048028502722 604.6248857536939 891.6867413585472 606.7845564101569z" fill="rgba(48, 88, 129, 0.4)" class="triangle-float1"></path><path d="M1221.641533399517 150.4232636534787L1076.4037564619684-135.29474778479445 919.7296152892284 96.98421869316502z" fill="rgba(48, 88, 129, 0.4)" class="triangle-float2"></path><path d="M934.085,1143.926C993.889,1144.037,1055.216,1128.279,1088.086,1078.318C1124.181,1023.454,1133.401,950.085,1098.01,894.764C1064.586,842.517,996.093,836.185,934.085,837.591C875.286,838.924,814.153,852.315,782.55,901.917C748.795,954.897,747.736,1024.503,781.075,1077.747C812.684,1128.228,874.525,1143.815,934.085,1143.926" fill="rgba(48, 88, 129, 0.4)" class="triangle-float3"></path><path d="M677.3435585604574 1073.0384089104793L744.9164780714667 887.9324193496582 574.7809447467315 914.8792405746129z" fill="rgba(48, 88, 129, 0.4)" class="triangle-float2"></path><path d="M689.3560579668807 477.21022879324124L685.114457740765 234.20911458604985 442.1133435335736 238.4507148121656 446.3549437596893 481.451829019357z" fill="rgba(48, 88, 129, 0.4)" class="triangle-float2"></path><path d="M1224.007,576.778C1290.009,576.557,1356.493,555.644,1392.059,500.044C1430.359,440.17,1440.278,359.997,1400.244,301.268C1363.501,247.366,1289.189,250.91,1224.007,253.514C1165.077,255.868,1103.961,265.816,1070.583,314.439C1032.677,369.657,1020.183,443.359,1053.995,501.175C1087.554,558.556,1157.533,577.001,1224.007,576.778" fill="rgba(48, 88, 129, 0.4)" class="triangle-float3"></path><path d="M565.077,676.773C607.796,678.64,648.442,657.164,670.839,620.739C694.35,582.501,699.411,533.952,676.7,495.233C654.223,456.914,609.428,437.876,565.077,440.435C524.777,442.76,492.618,471.263,473.735,506.941C456.153,540.162,456.394,579.044,474.198,612.147C493.069,647.234,525.275,675.034,565.077,676.773" fill="rgba(48, 88, 129, 0.4)" class="triangle-float1"></path><path d="M397.514,742.131C426.205,741.599,451.193,722.646,463.9,696.917C475.318,673.798,469.217,646.929,455.232,625.266C442.52,605.575,420.907,595.533,397.514,594.08C370.67,592.413,340.877,594.905,325.879,617.231C309.496,641.619,312.104,673.975,326.721,699.461C341.413,725.078,367.988,742.679,397.514,742.131" fill="rgba(48, 88, 129, 0.4)" class="triangle-float3"></path><path d="M1208.7600060488899-55.30247775185666L1029.2962843032078 84.90994852744578 1169.5087105825103 264.37367027312786 1348.9724323281923 124.16124399382542z" fill="rgba(48, 88, 129, 0.4)" class="triangle-float1"></path><path d="M1923.1821721055862 677.0076281768764L1657.9478876181697 758.0978867194145 1739.0381461607076 1023.3321712068312 2004.2724306481243 942.2419126642931z" fill="rgba(48, 88, 129, 0.4)" class="triangle-float1"></path><path d="M557.4297661706304 762.458946296414L625.6616894288807 972.4552132181358 835.6579563506025 904.2232899598855 767.4260330923522 694.2270230381637z" fill="rgba(48, 88, 129, 0.4)" class="triangle-float1"></path></g><defs><mask id="SvgjsMask1014"><rect width="1920" height="1000" fill="#ffffff"></rect></mask><style>
                @keyframes float1 {
                    0%{transform: translate(0, 0)}
                    50%{transform: translate(-10px, 0)}
                    100%{transform: translate(0, 0)}
                }

                .triangle-float1 {
                    animation: float1 5s infinite;
                }

                @keyframes float2 {
                    0%{transform: translate(0, 0)}
                    50%{transform: translate(-5px, -5px)}
                    100%{transform: translate(0, 0)}
                }

                .triangle-float2 {
                    animation: float2 4s infinite;
                }

                @keyframes float3 {
                    0%{transform: translate(0, 0)}
                    50%{transform: translate(0, -10px)}
                    100%{transform: translate(0, 0)}
                }

                .triangle-float3 {
                    animation: float3 6s infinite;
                }
            </style></defs></svg>