<svg xmlns="http://www.w3.org/2000/svg" version="1.1" xmlns:xlink="http://www.w3.org/1999/xlink" xmlns:svgjs="http://svgjs.dev/svgjs" width="1920" height="1000" preserveAspectRatio="none" viewBox="0 0 1920 1000"><g mask="url(&quot;#SvgjsMask1006&quot;)" fill="none"><path d="M396.941470634861 549.220913998344L561.7420916864133 824.0882303285275 701.8196829640077 581.4667252338671z" fill="rgba(48, 88, 129, 0.4)" class="triangle-float3"></path><path d="M1031.458630349216 1058.3177368929837L1135.8332497641154 824.4884912349081 912.8424311605814 843.9976599330831z" fill="rgba(48, 88, 129, 0.4)" class="triangle-float1"></path><path d="M458.5001147565099 46.741704661425814L307.046953467265 36.15106793370263 366.8875790203027 268.62612823143155z" fill="rgba(48, 88, 129, 0.4)" class="triangle-float3"></path><path d="M854.926,255.467C912.131,259.032,966.314,226.418,994.62,176.58C1022.597,127.321,1021.392,65.077,989.749,18.088C961.126,-24.417,906.069,-34.075,854.926,-30.863C810.01,-28.042,769.331,-5.456,746.559,33.362C723.498,72.673,722.468,119.903,742.453,160.864C765.477,208.054,802.521,252.201,854.926,255.467" fill="rgba(48, 88, 129, 0.4)" class="triangle-float2"></path><path d="M1717.9583236042492 647.4023799823685L1969.7930483928862 625.3696964811918 1947.7603648917093 373.5349716925549 1695.9256401030725 395.56765519373164z" fill="rgba(48, 88, 129, 0.4)" class="triangle-float2"></path><path d="M307.818,1107.537C358.453,1110.688,414.03,1100.976,440.875,1057.927C468.905,1012.977,461.175,953.527,431.011,909.981C404.389,871.549,354.527,863.83,307.818,865.842C265.325,867.672,223.743,883.465,201.727,919.855C178.956,957.493,179.004,1004.684,200.651,1042.979C222.646,1081.89,263.207,1104.761,307.818,1107.537" fill="rgba(48, 88, 129, 0.4)" class="triangle-float3"></path><path d="M1482.4619498469092-57.20094285562218L1385.7222891565305 194.81448933107217 1637.7377213432248 291.5541500214508 1734.4773820336036 39.538717834756504z" fill="rgba(48, 88, 129, 0.4)" class="triangle-float2"></path><path d="M1314.1657968366862 92.31519277789167L1220.3046931112804 349.433763532134 1456.6287864955907 312.0037042662565z" fill="rgba(48, 88, 129, 0.4)" class="triangle-float1"></path><path d="M1805.8307693071438 610.1517738246944L1559.4105246828547 584.2519624594776 1533.510713317638 830.6722070837667 1779.930957941927 856.5720184489835z" fill="rgba(48, 88, 129, 0.4)" class="triangle-float3"></path><path d="M129.01424343621244 7.711708989088258L198.74091072040073 235.77736125374844 357.0798957008726-62.01495829510004z" fill="rgba(48, 88, 129, 0.4)" class="triangle-float2"></path></g><defs><mask id="SvgjsMask1006"><rect width="1920" height="1000" fill="#ffffff"></rect></mask><style>
                @keyframes float1 {
                    0%{transform: translate(0, 0)}
                    50%{transform: translate(-10px, 0)}
                    100%{transform: translate(0, 0)}
                }

                .triangle-float1 {
                    animation: float1 5s infinite;
                }

                @keyframes float2 {
                    0%{transform: translate(0, 0)}
                    50%{transform: translate(-5px, -5px)}
                    100%{transform: translate(0, 0)}
                }

                .triangle-float2 {
                    animation: float2 4s infinite;
                }

                @keyframes float3 {
                    0%{transform: translate(0, 0)}
                    50%{transform: translate(0, -10px)}
                    100%{transform: translate(0, 0)}
                }

                .triangle-float3 {
                    animation: float3 6s infinite;
                }
            </style></defs></svg>